<?xml version="1.0" standalone="no"?>
<!DOCTYPE svg PUBLIC "-//W3C//DTD SVG 20010904//EN"
 "http://www.w3.org/TR/2001/REC-SVG-20010904/DTD/svg10.dtd">
<svg version="1.0" xmlns="http://www.w3.org/2000/svg"
 width="512.000000pt" height="512.000000pt" viewBox="0 0 512.000000 512.000000"
 preserveAspectRatio="xMidYMid meet">
<metadata>
Created by potrace 1.11, written by Peter Selinger 2001-2013
</metadata>
<g transform="translate(0.000000,512.000000) scale(0.100000,-0.100000)"
fill="#000000" stroke="none">
<path d="M2389 4795 c-2 -2 -33 -6 -69 -9 -36 -2 -101 -11 -145 -20 -44 -8
-94 -17 -111 -20 -43 -8 -256 -73 -318 -97 -122 -49 -334 -160 -440 -231 -209
-141 -505 -442 -623 -633 -200 -323 -312 -637 -351 -985 -9 -84 -9 -395 1
-485 42 -390 199 -787 436 -1100 25 -33 48 -62 51 -65 3 -3 25 -29 49 -58 36
-44 110 -119 225 -227 37 -35 218 -168 288 -210 51 -31 222 -125 228 -125 4 0
20 -6 36 -14 154 -74 414 -151 579 -171 28 -4 61 -9 75 -12 57 -12 429 -10
525 3 440 57 811 215 1150 490 102 82 277 259 345 349 25 33 48 62 51 65 3 3
35 50 70 105 70 107 161 282 198 380 13 33 27 69 31 80 20 51 31 86 50 160 12
44 23 88 25 98 9 32 13 52 19 97 3 25 8 56 11 70 21 104 28 459 12 580 -4 30
-9 66 -11 80 -2 14 -6 39 -9 55 -4 17 -9 46 -12 65 -12 70 -26 121 -65 241
-22 67 -37 126 -33 132 3 5 1 7 -4 4 -6 -4 -18 14 -28 41 -25 66 -127 261
-182 346 -143 219 -328 419 -538 577 -74 56 -232 159 -244 159 -4 0 -19 8 -32
18 -51 38 -360 166 -451 187 -83 18 -128 31 -124 35 2 3 -8 5 -22 5 -25 1 -60
6 -137 19 -16 3 -46 8 -65 12 -41 6 -435 15 -441 9z m244 -1049 c59 -17 114
-65 143 -124 18 -35 19 -76 22 -657 2 -558 1 -625 -14 -673 -67 -211 -362
-216 -449 -8 -12 28 -14 142 -15 653 0 691 -2 674 68 747 67 69 149 90 245 62z
m-1 -1886 c188 -52 258 -291 131 -440 -130 -151 -373 -109 -456 79 -24 54 -20
167 7 220 59 112 198 174 318 141z"/>
</g>
</svg>
